<?xml version="1.0" standalone="no"?>
<!DOCTYPE svg PUBLIC "-//W3C//DTD SVG 20010904//EN"
 "http://www.w3.org/TR/2001/REC-SVG-20010904/DTD/svg10.dtd">
<svg version="1.0" xmlns="http://www.w3.org/2000/svg"
 width="465.000000pt" height="465.000000pt" viewBox="0 0 465.000000 465.000000"
 preserveAspectRatio="xMidYMid meet">
<metadata>
Created by potrace 1.11, written by Peter Selinger 2001-2013
</metadata>
<g transform="translate(0.000000,465.000000) scale(0.100000,-0.100000)"
fill="#000000" stroke="none">
<path d="M2149 4646 c-2 -2 -36 -7 -75 -10 -39 -4 -80 -8 -91 -11 -11 -2 -36
-6 -54 -9 -132 -21 -268 -59 -434 -120 -80 -30 -81 -30 -195 -86 -107 -52
-154 -79 -259 -149 -46 -31 -90 -60 -99 -66 -9 -5 -24 -18 -33 -27 -9 -10 -19
-18 -23 -18 -3 0 -14 -8 -25 -17 -10 -10 -47 -43 -82 -73 -34 -30 -90 -84
-123 -119 -34 -35 -71 -74 -84 -87 -12 -13 -22 -28 -22 -34 0 -5 -4 -10 -9
-10 -16 0 -172 -219 -232 -327 -72 -128 -123 -240 -164 -353 -15 -41 -31 -86
-36 -100 -5 -14 -11 -34 -14 -45 -2 -11 -13 -54 -24 -95 -22 -80 -45 -209 -58
-312 -10 -79 -10 -412 0 -498 12 -106 32 -223 49 -285 6 -22 11 -44 13 -50 36
-160 134 -403 233 -576 11 -20 26 -47 34 -60 7 -13 15 -26 18 -29 15 -15 50
-71 50 -80 0 -5 4 -10 8 -10 5 0 17 -16 28 -35 10 -19 22 -35 25 -35 4 0 15
-13 26 -29 35 -56 150 -178 302 -321 9 -9 35 -29 56 -45 22 -17 48 -37 58 -47
36 -32 204 -143 257 -170 14 -7 41 -22 60 -34 85 -51 385 -172 470 -189 8 -2
42 -10 75 -19 33 -8 76 -18 95 -21 19 -3 58 -10 85 -15 107 -20 147 -22 340
-25 150 -2 231 2 325 15 157 23 164 24 285 55 55 15 107 28 115 30 24 6 176
63 227 86 42 18 92 43 218 107 81 41 315 203 323 224 2 4 10 8 18 8 8 0 14 7
14 15 0 8 5 15 11 15 21 0 227 207 299 300 14 18 32 40 40 49 24 27 120 171
120 181 0 4 4 10 8 12 23 9 203 373 207 418 0 3 7 16 15 30 7 14 12 25 11 25
-3 0 3 24 25 100 17 58 46 174 50 194 2 14 11 71 20 126 28 163 25 523 -5 693
-6 31 -13 73 -16 92 -19 117 -95 357 -156 488 -22 46 -39 85 -39 87 0 9 -105
191 -112 193 -4 2 -8 8 -8 14 0 8 -48 83 -72 113 -5 6 -25 33 -46 61 -43 58
-42 57 -124 148 -81 89 -164 168 -258 245 -41 34 -82 67 -90 74 -8 6 -22 17
-31 22 -10 6 -62 38 -116 72 -91 57 -288 162 -306 163 -4 0 -26 8 -50 19 -23
10 -55 23 -72 29 -16 6 -39 13 -50 18 -11 4 -24 8 -30 10 -203 58 -305 81
-393 90 -31 3 -60 8 -66 11 -10 6 -431 14 -437 9z"/>
</g>
</svg>
